<svg width="12" height="12" viewBox="0 0 12 12" fill="none" xmlns="http://www.w3.org/2000/svg">
<g clip-path="url(#clip0)">
<path d="M6.56019 1.34708C6.75963 1.37708 6.93135 1.54256 6.96879 1.74068C7.11807 1.74548 7.24035 1.85384 7.35723 1.94684C7.47411 2.03984 7.62267 2.12708 7.76511 2.08196L7.71087 1.67264C7.69875 1.58108 7.68567 1.48676 7.63899 1.40708C7.57227 1.29344 7.44867 1.22792 7.33131 1.16804C7.19187 1.097 7.04991 1.025 6.89595 0.996922C6.74199 0.968842 6.57147 0.990442 6.45099 1.09028C6.39375 1.1378 6.34911 1.22312 6.39159 1.2842C6.42687 1.33532 6.49899 1.33784 6.56019 1.34708Z" fill="white"/>
<path d="M8.03977 1.4718C8.16301 1.48296 8.27497 1.57476 8.31013 1.69332C8.31517 1.71036 8.31853 1.7298 8.30953 1.74528C8.29753 1.76592 8.26969 1.76976 8.24593 1.76892C8.20735 1.76828 8.16937 1.75931 8.13457 1.74264C8.08863 1.71931 8.05254 1.68033 8.03281 1.63272C8.0135 1.58493 8.01193 1.53181 8.02837 1.48296" fill="white"/>
<path d="M9.02493 6.2061C8.89005 6.17718 8.74425 6.04722 8.66793 5.9379C8.61765 5.86578 8.58285 5.78298 8.52633 5.71554C8.46381 5.64102 8.37837 5.58954 8.29221 5.54442C7.91566 5.34813 7.49776 5.24439 7.07313 5.24178C6.79485 5.2401 6.37545 5.20242 6.21537 4.91298C6.18885 4.8651 6.21261 4.80666 6.22353 4.7529C6.23445 4.69914 6.21573 4.6257 6.16101 4.62294C6.05661 4.61766 6.03237 4.74222 5.90085 4.72698C5.80581 4.71594 5.67729 4.64538 5.64513 4.5513C5.61585 4.46562 5.64573 4.2741 5.65209 4.18302C5.66385 4.01454 6.31737 4.0251 6.43557 4.03494C6.41337 4.16358 6.54333 4.36458 6.68721 4.24758C6.81189 4.1463 6.65745 3.86646 6.76605 3.72654C6.90777 3.54366 7.08969 3.36114 7.24953 3.18954C7.29453 3.14118 7.33977 3.0927 7.39137 3.05154C7.50405 2.9619 7.64205 2.91126 7.76649 2.83878C7.52337 2.4627 7.08261 2.2227 6.63489 2.22258C6.60033 2.22258 6.56253 2.2251 6.53709 2.2485C6.50361 2.27922 6.50553 2.33166 6.51033 2.37678C6.52341 2.5011 6.53877 2.6253 6.55641 2.74902L6.17361 2.59698C6.07893 2.55942 5.97957 2.51826 5.91789 2.43714C5.85633 2.35602 5.85237 2.22198 5.93685 2.16522C6.05589 2.08518 6.23661 2.21082 6.35421 2.12886C6.42501 2.07942 6.44337 1.97034 6.52317 1.93734C6.59457 1.90794 6.67185 1.95594 6.74733 1.97274C6.82269 1.98954 6.92937 1.9287 6.89289 1.86054C6.68601 1.72266 6.44985 1.57842 6.20589 1.62666C6.08313 1.6509 5.97489 1.7223 5.85525 1.7589C5.56665 1.84734 5.25993 1.72578 4.98273 1.60626C4.94049 1.58802 4.89681 1.56894 4.86573 1.53498C4.83045 1.49646 4.81557 1.44342 4.78545 1.4007C4.68993 1.26546 4.33449 1.26582 4.35777 1.25922C4.32789 1.2567 4.27005 1.32414 4.24017 1.3215C4.21401 1.31922 3.94821 1.59114 3.89961 1.62378C3.73677 1.73346 3.55341 1.77846 3.35505 1.83702C3.16005 1.89462 2.93841 2.11698 3.24189 2.13198C3.49053 2.14422 3.85233 2.0553 4.09437 1.99962C4.13901 1.98942 4.18773 1.97838 4.22889 1.99842C4.26921 2.01798 4.29093 2.06178 4.30809 2.10318C4.45935 2.47149 4.4783 2.88083 4.36173 3.26154C4.32189 3.39018 4.26621 3.52602 4.30545 3.6549C4.36209 3.84066 4.59585 3.93762 4.63077 4.12866C4.64577 4.21086 4.62057 4.30038 4.65465 4.37658C4.73469 4.55526 4.97889 4.47534 5.11677 4.44342C5.11605 4.44366 5.13717 4.72158 5.15613 4.75206C5.22309 4.85946 5.39829 4.88682 5.50869 4.91766C5.91585 5.03154 6.27405 5.2047 6.64101 5.41398C6.72981 5.46462 6.82269 5.5191 6.87441 5.60742C7.01301 5.84382 6.78345 6.12366 6.75381 6.39606C6.74589 6.47353 6.75457 6.5518 6.77928 6.62565C6.80399 6.6995 6.84415 6.76723 6.89709 6.82434C6.95745 6.88866 7.03293 6.9375 7.09293 7.00242C7.23273 7.15362 7.27185 7.37586 7.24977 7.5807C7.22781 7.78554 7.15245 7.98006 7.08933 8.17615C6.97127 8.54327 6.89479 8.92248 6.86133 9.30666C6.85137 9.42102 6.91281 9.45078 7.01529 9.41934C7.16133 9.37471 7.13505 9.23682 7.17201 9.1281C7.27821 8.8149 7.61613 8.5359 7.90425 8.39947C8.03229 8.33886 8.17281 8.2929 8.27217 8.19198C8.41233 8.04966 8.44305 7.8255 8.58369 7.68354C8.70345 7.56258 8.88525 7.51974 9.00609 7.39974C9.13713 7.26954 9.18285 7.07874 9.26793 6.9201C9.33201 6.8007 9.45465 6.70315 9.50877 6.58302C9.67065 6.22315 9.23325 6.25074 9.02493 6.2061Z" fill="white"/>
<path d="M6 0C2.86296 0 0 2.55507 0 6C0 9.13704 2.5 12 6 12C9.13704 12 11.8604 9.49721 12 6C12.1286 2.77875 9.13704 0 6 0ZM7.89398 10.8345C7.7597 10.7813 7.61187 10.7626 7.4699 10.7895C7.26122 10.8289 7.04222 10.9535 6.85118 10.8605C6.66194 10.7685 6.62379 10.4943 6.72722 10.3109C6.83066 10.1275 7.03047 10.021 7.22834 9.94935C7.09382 9.84051 6.88778 9.89103 6.74834 9.99363C6.6089 10.0961 6.50486 10.2415 6.36278 10.3403C6.2207 10.4391 6.0095 10.4783 5.88398 10.3591C5.87978 10.4574 5.76495 10.5137 5.66654 10.5133C5.56814 10.513 5.47058 10.4783 5.37314 10.4914C5.2415 10.5089 5.13422 10.6125 5.0759 10.7317C5.02118 10.8438 5.00246 10.9693 4.9865 11.0933C2.6027 10.6204 0.799824 8.51367 0.799824 5.99307C0.799824 3.12567 3.13262 0.792988 5.9999 0.792988C7.03802 0.792988 8.00511 1.09995 8.81775 1.62615C8.80202 1.70823 8.79626 1.79091 8.8103 1.87347C8.84246 2.06355 9.01455 2.24463 9.20487 2.21331L9.23967 2.07519C9.47991 2.12355 9.68462 2.31771 9.74558 2.55507C9.70953 2.57905 9.68111 2.61287 9.66369 2.65252C9.64627 2.69216 9.64058 2.73597 9.6473 2.77875C9.93938 2.83359 10.1275 3.13359 10.177 3.42663C10.2264 3.71967 10.1742 4.01943 10.1776 4.31667C10.1829 4.78407 10.3717 5.29779 10.7977 5.49015C10.9162 5.54367 11.0575 5.56503 11.1778 5.52447C11.1917 5.67903 11.2 5.83515 11.2 5.99319C11.2 8.19219 9.82706 10.0755 7.89398 10.8345Z" fill="white"/>
</g>
<defs>
<clipPath id="clip0">
<rect width="12" height="12" fill="white"/>
</clipPath>
</defs>
</svg>
