<svg width="12" height="12" viewBox="0 0 12 12" fill="none" xmlns="http://www.w3.org/2000/svg">
<path d="M9.27899 12C9.16219 11.9996 9.04576 11.9865 8.93168 11.9609C6.75987 11.5015 4.75905 10.4242 3.15951 8.8532C1.5941 7.27871 0.508409 5.27404 0.0337873 3.08174C-0.0221766 2.80851 -0.00844085 2.52516 0.0736731 2.25893C0.155787 1.9927 0.303516 1.75257 0.502646 1.56163L1.89186 0.194235C1.96281 0.125612 2.04712 0.0730625 2.13928 0.0400152C2.23144 0.00696789 2.32938 -0.00583407 2.4267 0.00244484C2.52762 0.013211 2.625 0.0464547 2.712 0.0998382C2.799 0.153222 2.87351 0.225449 2.93029 0.31144L4.66681 2.93612C4.73193 3.03796 4.76336 3.15849 4.75648 3.27997C4.74961 3.40145 4.70478 3.51746 4.6286 3.61094L3.75687 4.67644C4.10405 5.46223 4.59573 6.17243 5.20513 6.76837C5.81058 7.38593 6.52621 7.87905 7.31325 8.221L8.39336 7.34374C8.48408 7.27042 8.59447 7.22707 8.70986 7.21946C8.82525 7.21185 8.94017 7.24033 9.03935 7.30112L11.6615 9.03433C11.7515 9.08928 11.8281 9.16433 11.8857 9.25387C11.9433 9.34342 11.9803 9.44512 11.994 9.55138C12.0077 9.65764 11.9977 9.76569 11.9648 9.86743C11.9319 9.96918 11.8769 10.062 11.8039 10.1389L10.4494 11.5098C10.2955 11.6664 10.1129 11.7903 9.91206 11.8744C9.71119 11.9586 9.49604 12.0012 9.27899 12ZM2.13928 1.41067L0.927936 2.92547C0.815914 3.03221 0.786978 2.31454 0.741307 2.46399C0.695637 2.61345 0.895281 2.77249 0.927936 2.92547C1.36926 4.98264 2.29185 6.32345 3.75687 7.80367C5.26215 9.28172 7.03041 10.5738 9.07408 11.0055C9.22877 11.0386 9.26475 11.046 9.41628 11.0002C9.49788 10.9755 10.0043 10.5041 10.4719 10.0565C10.4928 10.0365 10.5136 10.0165 10.5343 9.99662C10.9107 9.63538 11.2477 9.30368 11.2968 9.25387L10.8587 9.68334L10.6686 9.86743L8.59574 8.48138L7.60499 8.90647C7.56058 8.94242 7.50825 8.96671 7.45256 8.97723C7.39687 8.98776 7.48438 9.14905 7.43034 9.13171C6.46717 8.7688 5.34872 8.35729 4.6286 7.60924C3.88376 6.89792 3.26144 5.69435 2.89308 4.72261C2.8775 4.66378 3.02186 4.60184 3.03645 4.54275C3.05105 4.48366 3.08027 4.4294 3.12131 4.3852L3.75687 3.61094L2.13928 1.41067Z" fill="white"/>
<path fill-rule="evenodd" clip-rule="evenodd" d="M10.6686 9.86743L10.5343 9.99662C10.5136 10.0165 10.4928 10.0365 10.4719 10.0565C10.5387 9.99251 10.6047 9.92904 10.6686 9.86743Z" fill="white"/>
</svg>
