<svg width="40" height="40" viewBox="0 0 40 40" fill="none" xmlns="http://www.w3.org/2000/svg">
<path d="M0 8C0 3.58172 3.58172 0 8 0H32C36.4183 0 40 3.58172 40 8V32C40 36.4183 36.4183 40 32 40H8C3.58172 40 0 36.4183 0 32V8Z" fill="#5D5D64"/>
<circle cx="20" cy="20" r="20" fill="#5D5D64"/>
<path d="M27.448 26.1165L28.3364 20.4715H22.7788V16.81C22.7788 15.2653 23.5537 13.7587 26.043 13.7587H28.5713V8.95283C28.5713 8.95283 26.2778 8.57141 24.086 8.57141C19.5068 8.57141 16.5166 11.2756 16.5166 16.1692V20.4715H11.4285V26.1165H16.5166V39.7635C17.5381 39.9199 18.5831 40 19.6477 40C20.7122 40 21.7573 39.9199 22.7788 39.7635V26.1165H27.448Z" fill="white"/>
</svg>
