<svg width="40" height="40" viewBox="0 0 40 40" fill="none" xmlns="http://www.w3.org/2000/svg">
<rect width="40" height="40" rx="6" fill="url(#paint0_radial)"/>
<rect width="40" height="40" rx="6" fill="url(#paint1_radial)"/>
<rect width="40" height="40" rx="6" fill="url(#paint2_radial)"/>
<path d="M30.0001 12.1428C30.0001 13.3263 29.0407 14.2857 27.8572 14.2857C26.6737 14.2857 25.7144 13.3263 25.7144 12.1428C25.7144 10.9593 26.6737 9.99995 27.8572 9.99995C29.0407 9.99995 30.0001 10.9593 30.0001 12.1428Z" fill="white"/>
<path fill-rule="evenodd" clip-rule="evenodd" d="M20.0001 27.1428C23.945 27.1428 27.1429 23.9448 27.1429 19.9999C27.1429 16.0551 23.945 12.8571 20.0001 12.8571C16.0552 12.8571 12.8572 16.0551 12.8572 19.9999C12.8572 23.9448 16.0552 27.1428 20.0001 27.1428ZM20.0001 24.2857C22.367 24.2857 24.2858 22.3669 24.2858 19.9999C24.2858 17.633 22.367 15.7142 20.0001 15.7142C17.6331 15.7142 15.7144 17.633 15.7144 19.9999C15.7144 22.3669 17.6331 24.2857 20.0001 24.2857Z" fill="white"/>
<path fill-rule="evenodd" clip-rule="evenodd" d="M5.71436 19.4285C5.71436 14.6281 5.71436 12.2278 6.64859 10.3943C7.47036 8.7815 8.78162 7.47024 10.3944 6.64846C12.228 5.71423 14.6282 5.71423 19.4286 5.71423H20.5715C25.372 5.71423 27.7722 5.71423 29.6057 6.64846C31.2185 7.47024 32.5298 8.7815 33.3516 10.3943C34.2858 12.2278 34.2858 14.6281 34.2858 19.4285V20.5714C34.2858 25.3718 34.2858 27.7721 33.3516 29.6056C32.5298 31.2184 31.2185 32.5297 29.6057 33.3514C27.7722 34.2857 25.372 34.2857 20.5715 34.2857H19.4286C14.6282 34.2857 12.228 34.2857 10.3944 33.3514C8.78162 32.5297 7.47036 31.2184 6.64859 29.6056C5.71436 27.7721 5.71436 25.3718 5.71436 20.5714V19.4285ZM19.4286 8.57138H20.5715C23.0189 8.57138 24.6826 8.5736 25.9685 8.67867C27.2212 8.78101 27.8617 8.96651 28.3086 9.1942C29.3838 9.74204 30.258 10.6162 30.8058 11.6914C31.0335 12.1383 31.219 12.7789 31.3214 14.0315C31.4264 15.3175 31.4286 16.9812 31.4286 19.4285V20.5714C31.4286 23.0187 31.4264 24.6824 31.3214 25.9684C31.219 27.221 31.0335 27.8616 30.8058 28.3085C30.258 29.3837 29.3838 30.2579 28.3086 30.8057C27.8617 31.0334 27.2212 31.2189 25.9685 31.3212C24.6826 31.4263 23.0189 31.4285 20.5715 31.4285H19.4286C16.9813 31.4285 15.3176 31.4263 14.0316 31.3212C12.779 31.2189 12.1384 31.0334 11.6916 30.8057C10.6163 30.2579 9.74217 29.3837 9.19432 28.3085C8.96663 27.8616 8.78113 27.221 8.67879 25.9684C8.57372 24.6824 8.5715 23.0187 8.5715 20.5714V19.4285C8.5715 16.9812 8.57372 15.3175 8.67879 14.0315C8.78113 12.7789 8.96663 12.1383 9.19432 11.6914C9.74217 10.6162 10.6163 9.74204 11.6916 9.1942C12.1384 8.96651 12.779 8.78101 14.0316 8.67867C15.3176 8.5736 16.9813 8.57138 19.4286 8.57138Z" fill="white"/>
<defs>
<radialGradient id="paint0_radial" cx="0" cy="0" r="1" gradientUnits="userSpaceOnUse" gradientTransform="translate(14.2857 30) rotate(-55.3758) scale(36.4566)">
<stop offset="0.9998" stop-color="#5D5D64"/>
<stop offset="0.9999" stop-color="#C62F94"/>
<stop offset="1" stop-color="#8A3AC8"/>
</radialGradient>
<radialGradient id="paint1_radial" cx="0" cy="0" r="1" gradientUnits="userSpaceOnUse" gradientTransform="translate(12.8571 41.4286) rotate(-65.1363) scale(32.2775)">
<stop offset="0.9996" stop-color="#5D5D64"/>
<stop offset="0.9997" stop-color="#FB8A2E"/>
<stop offset="0.9998" stop-color="#E28336"/>
<stop offset="0.9999" stop-color="#E2425C"/>
<stop offset="1" stop-color="#E2425C" stop-opacity="0"/>
</radialGradient>
<radialGradient id="paint2_radial" cx="0" cy="0" r="1" gradientUnits="userSpaceOnUse" gradientTransform="translate(-2.14285 1.42857) rotate(-8.1301) scale(55.5584 11.8834)">
<stop offset="0.9998" stop-color="#5D5D64"/>
<stop offset="0.9999" stop-color="#6A45BE"/>
<stop offset="1" stop-color="#6A45BE" stop-opacity="0"/>
</radialGradient>
</defs>
</svg>
