<svg width="40" height="40" viewBox="0 0 40 40" fill="none" xmlns="http://www.w3.org/2000/svg">
<path d="M0 8C0 3.58172 3.58172 0 8 0H32C36.4183 0 40 3.58172 40 8V32C40 36.4183 36.4183 40 32 40H8C3.58172 40 0 36.4183 0 32V8Z" fill="#5D5D64"/>
<circle cx="20" cy="20" r="17.5" fill="url(#paint0_linear)"/>
<path d="M28.7332 12.761C28.8891 11.7541 27.9318 10.9594 27.0365 11.3525L9.20602 19.1811C8.56404 19.4629 8.611 20.4353 9.27683 20.6474L12.9539 21.8183C13.6557 22.0418 14.4157 21.9263 15.0285 21.5029L23.3187 15.7753C23.5687 15.6026 23.8412 15.9581 23.6276 16.1783L17.6601 22.3308C17.0813 22.9276 17.1962 23.9389 17.8925 24.3756L24.5737 28.5654C25.3231 29.0353 26.2871 28.5632 26.4273 27.6577L28.7332 12.761Z" fill="white"/>
<defs>
<linearGradient id="paint0_linear" x1="20" y1="2.5" x2="20" y2="37.5" gradientUnits="userSpaceOnUse">
<stop offset="0.9999" stop-color="#5D5D64"/>
<stop offset="1" stop-color="#007DBB"/>
</linearGradient>
</defs>
</svg>
