<svg width="40" height="40" viewBox="0 0 40 40" fill="none" xmlns="http://www.w3.org/2000/svg">
<rect width="40" height="40" rx="8" fill="#5D5D64"/>
<path d="M14.8471 30.5357C11.9587 30.5357 9.26623 29.6956 7 28.2461C8.9241 28.3706 12.3197 28.0724 14.4318 26.0578C11.2545 25.9121 9.82166 23.4753 9.63477 22.4339C9.90473 22.538 11.1922 22.663 11.9191 22.3714C8.26419 21.455 7.70351 18.2476 7.8281 17.2687C8.51339 17.7478 9.6763 17.9144 10.1332 17.8727C6.72749 15.4359 7.9527 11.7703 8.55492 10.9789C10.9989 14.3649 14.6618 16.2666 19.1932 16.3724C19.1078 15.9976 19.0626 15.6075 19.0626 15.2068C19.0626 12.3312 21.387 10 24.2542 10C25.7523 10 27.1021 10.6364 28.0497 11.6543C29.0508 11.4197 30.5574 10.8706 31.2939 10.3957C30.9227 11.7287 29.7669 12.8406 29.0678 13.2527C29.0736 13.2668 29.0621 13.2387 29.0678 13.2527C29.6819 13.1599 31.3436 12.8405 32 12.3951C31.6754 13.144 30.45 14.389 29.4444 15.0861C29.6315 23.3376 23.3183 30.5357 14.8471 30.5357Z" fill="white"/>
</svg>
