<svg width="40" height="40" viewBox="0 0 40 40" fill="none" xmlns="http://www.w3.org/2000/svg">
<path d="M0 8C0 3.58172 3.58172 0 8 0H32C36.4183 0 40 3.58172 40 8V32C40 36.4183 36.4183 40 32 40H8C3.58172 40 0 36.4183 0 32V8Z" fill="#5D5D64"/>
<path d="M5.26743 13.2145C5.40801 10.973 7.14807 9.21623 9.31426 9.10508C12.451 8.94412 16.9344 8.75 20.3125 8.75C23.6906 8.75 28.174 8.94412 31.3107 9.10508C33.4769 9.21623 35.217 10.973 35.3576 13.2145C35.4923 15.3621 35.625 18.0047 35.625 20.0781C35.625 22.1516 35.4923 24.7941 35.3576 26.9417C35.217 29.1833 33.4769 30.94 31.3107 31.0512C28.174 31.2121 23.6906 31.4062 20.3125 31.4062C16.9344 31.4062 12.451 31.2121 9.31426 31.0512C7.14807 30.94 5.40801 29.1833 5.26743 26.9417C5.13274 24.7941 5 22.1516 5 20.0781C5 18.0047 5.13274 15.3621 5.26743 13.2145Z" fill="white"/>
<path d="M17.5 15V24.0625L26.25 19.5312L17.5 15Z" fill="#5D5D64"/>
</svg>
