<svg width="20" height="18" viewBox="0 0 20 18" fill="none" xmlns="http://www.w3.org/2000/svg">
<path d="M9.99495 17.992C9.35027 17.4203 8.62164 16.8256 7.85103 16.1929H7.84104C5.12741 13.974 2.05197 11.4633 0.69366 8.45484C0.247886 7.49732 0.0110059 6.45585 1.14718e-05 5.39839C-0.00146948 4.68073 0.140452 3.97002 0.417443 3.30797C0.694433 2.64592 1.10091 2.04589 1.613 1.54311C2.1251 1.04033 2.73248 0.644927 3.3995 0.38013C4.06652 0.115333 4.77972 -0.0135253 5.49723 0.00112231C6.67726 0.00298617 7.83188 0.34403 8.82354 0.983624C9.25929 1.26645 9.65354 1.60856 9.99495 2.00011C10.3388 1.61031 10.7326 1.26848 11.1674 0.983624C12.1586 0.343903 13.3129 0.00283999 14.4927 0.00112231C15.2102 -0.0135253 15.9234 0.115333 16.5904 0.38013C17.2574 0.644927 17.8648 1.04033 18.3769 1.54311C18.889 2.04589 19.2955 2.64592 19.5725 3.30797C19.8494 3.97002 19.9914 4.68073 19.9899 5.39839C19.9797 6.45667 19.7432 7.50052 19.2962 8.45984C17.9379 11.4683 14.8635 13.978 12.1499 16.1929L12.1399 16.2009C11.3683 16.8296 10.6406 17.4243 9.99595 18L9.99495 17.992ZM5.49723 2.00011C4.56621 1.98846 3.66822 2.34478 2.99849 2.99161C2.67911 3.30533 2.42605 3.68005 2.25435 4.0935C2.08265 4.50696 1.99581 4.95071 1.999 5.39839C2.00999 6.168 2.1849 6.92761 2.51074 7.62526C3.15194 8.9233 4.0171 10.098 5.06644 11.0955C6.05694 12.095 7.19636 13.0625 8.18186 13.8761C8.45473 14.101 8.73259 14.3279 9.01045 14.5547L9.18536 14.6977C9.45222 14.9156 9.72808 15.1414 9.99495 15.3633L10.0079 15.3513L10.0139 15.3463H10.0199L10.0289 15.3393H10.0389L10.0569 15.3244L10.0979 15.2914L10.1049 15.2854L10.1159 15.2774H10.1219L10.1309 15.2694L10.7945 14.7247L10.9685 14.5817C11.2493 14.3528 11.5272 14.126 11.8 13.9011C12.7855 13.0875 13.926 12.121 14.9165 11.1165C15.966 10.1196 16.8312 8.94512 17.4722 7.64725C17.804 6.9436 17.9819 6.17599 17.9919 5.39839C17.9938 4.95199 17.9063 4.50973 17.7344 4.09773C17.5626 3.68573 17.31 3.31233 16.9914 2.9996C16.323 2.34985 15.4248 1.9906 14.4927 2.00011C13.9303 1.99533 13.3733 2.10961 12.8582 2.33545C12.3431 2.56129 11.8817 2.89356 11.5042 3.31045L9.99495 5.04956L8.48571 3.31045C8.10821 2.89356 7.64677 2.56129 7.1317 2.33545C6.61663 2.10961 6.05961 1.99533 5.49723 2.00011Z" fill="#F84C3B"/>
</svg>
