<svg width="23" height="20" viewBox="0 0 23 20" fill="none" xmlns="http://www.w3.org/2000/svg">
<path d="M11.1055 19.9911C10.3892 19.3559 9.5796 18.6951 8.72337 17.9921H8.71226C5.69712 15.5267 2.27997 12.737 0.770733 9.39426C0.275429 8.33036 0.0122288 7.17317 1.27464e-05 5.99821C-0.00163276 5.20081 0.156058 4.41113 0.463825 3.67552C0.771592 2.93991 1.22323 2.27321 1.79222 1.71456C2.36122 1.15592 3.03609 0.716586 3.77722 0.422367C4.51835 0.128148 5.3108 -0.0150281 6.10803 0.00124701C7.41917 0.00331796 8.70209 0.382255 9.80393 1.09292C10.2881 1.40717 10.7262 1.78729 11.1055 2.22234C11.4875 1.78923 11.9251 1.40942 12.4082 1.09292C13.5095 0.382115 14.7921 0.00315554 16.103 0.00124701C16.9002 -0.0150281 17.6926 0.128148 18.4338 0.422367C19.1749 0.716586 19.8498 1.15592 20.4188 1.71456C20.9878 2.27321 21.4394 2.93991 21.7472 3.67552C22.0549 4.41113 22.2126 5.20081 22.211 5.99821C22.1997 7.17407 21.9369 8.33391 21.4403 9.39982C19.931 12.7426 16.515 15.5312 13.4998 17.9921L13.4887 18.001C12.6314 18.6995 11.8229 19.3603 11.1066 20L11.1055 19.9911ZM6.10803 2.22234C5.07356 2.2094 4.0758 2.60531 3.33166 3.32401C2.97679 3.67259 2.69561 4.08894 2.50483 4.54834C2.31405 5.00773 2.21757 5.50079 2.22111 5.99821C2.23333 6.85333 2.42767 7.69735 2.78971 8.47251C3.50216 9.91477 4.46344 11.22 5.62938 12.3283C6.72993 13.4389 7.99596 14.5139 9.09096 15.4179C9.39414 15.6678 9.70287 15.9198 10.0116 16.1719L10.2059 16.3307C10.5025 16.5728 10.809 16.8238 11.1055 17.0704L11.1199 17.057L11.1266 17.0515H11.1333L11.1433 17.0437H11.1544L11.1743 17.0271L11.2199 16.9904L11.2277 16.9837L11.2399 16.9749H11.2465L11.2565 16.966L11.9939 16.3607L12.1872 16.2019C12.4992 15.9476 12.808 15.6955 13.1111 15.4456C14.2061 14.5417 15.4733 13.4678 16.5738 12.3517C17.74 11.244 18.7013 9.93903 19.4135 8.49694C19.7822 7.71511 19.9799 6.86221 19.991 5.99821C19.9931 5.50221 19.8959 5.01081 19.7049 4.55303C19.514 4.09525 19.2333 3.68037 18.8793 3.33289C18.1366 2.61095 17.1387 2.21177 16.103 2.22234C15.4781 2.21703 14.8592 2.34402 14.2869 2.59494C13.7146 2.84587 13.2019 3.21507 12.7824 3.67827L11.1055 5.61063L9.42857 3.67827C9.00912 3.21507 8.49641 2.84587 7.92411 2.59494C7.35181 2.34402 6.7329 2.21703 6.10803 2.22234Z" fill="#B8B8B8"/>
</svg>
