<svg width="18" height="18" viewBox="0 0 18 18" fill="none" xmlns="http://www.w3.org/2000/svg">
<path d="M8.92857 6.85714H10.7143V4.28571H13.3929V2.57143H10.7143V0H8.92857V2.57143H6.25V4.28571H8.92857V6.85714ZM5.35714 14.5714C4.88354 14.5714 4.42934 14.752 4.09445 15.0735C3.75957 15.395 3.57143 15.8311 3.57143 16.2857C3.57143 16.7404 3.75957 17.1764 4.09445 17.4979C4.42934 17.8194 4.88354 18 5.35714 18C5.83074 18 6.28495 17.8194 6.61983 17.4979C6.95472 17.1764 7.14286 16.7404 7.14286 16.2857C7.14286 15.8311 6.95472 15.395 6.61983 15.0735C6.28495 14.752 5.83074 14.5714 5.35714 14.5714ZM14.2857 14.5714C13.8121 14.5714 13.3579 14.752 13.023 15.0735C12.6881 15.395 12.5 15.8311 12.5 16.2857C12.5 16.7404 12.6881 17.1764 13.023 17.4979C13.3579 17.8194 13.8121 18 14.2857 18C14.7593 18 15.2135 17.8194 15.5484 17.4979C15.8833 17.1764 16.0714 16.7404 16.0714 16.2857C16.0714 15.8311 15.8833 15.395 15.5484 15.0735C15.2135 14.752 14.7593 14.5714 14.2857 14.5714ZM5.50893 11.7857L5.53571 11.6829L6.33929 10.2857H12.9911C13.6607 10.2857 14.25 9.93429 14.5536 9.40286L18 3.39429L16.4464 2.57143H16.4375L15.4554 4.28571L12.9911 8.57143H6.72321L6.60714 8.34L4.60714 4.28571L3.75893 2.57143L2.91964 0.857143H0V2.57143H1.78571L5 9.07714L3.79464 11.1771C3.65179 11.4171 3.57143 11.7 3.57143 12C3.57143 12.4547 3.75957 12.8907 4.09445 13.2122C4.42934 13.5337 4.88354 13.7143 5.35714 13.7143H16.0714V12H5.73214C5.61607 12 5.50893 11.9057 5.50893 11.7857Z" fill="white"/>
</svg>
