<svg width="20" height="19" viewBox="0 0 20 19" fill="none" xmlns="http://www.w3.org/2000/svg">
<path d="M8 15.2368C8 16.167 8.44772 16.5 9 16.5C9.55228 16.5 10 16.167 10 15.2368L10 1.76316C10 0.832994 9.55228 0.5 9 0.5C8.44772 0.5 8 0.832994 8 1.76316L8 15.2368Z" fill="#B8B8B8"/>
<path d="M2 16C1.44772 16 1 15.617 1 15.2727L1 8.72727C1 8.38299 1.44772 8 2 8C2.55228 8 3 8.38299 3 8.72727L3 15.2727C3 15.617 2.55228 16 2 16Z" fill="#B8B8B8"/>
<path d="M15 14.7523C15 15.6485 15.4477 16 16 16C16.5523 16 17 15.6485 17 14.7523V5.13169C17 4.23548 16.5523 4 16 4C15.4477 4 15 4.23549 15 5.13169L15 14.7523Z" fill="#B8B8B8"/>
</svg>
