<svg width="20" height="20" viewBox="0 0 20 20" fill="none" xmlns="http://www.w3.org/2000/svg">
<path fill-rule="evenodd" clip-rule="evenodd" d="M14 7C14 10.866 10.866 14 7 14C3.13401 14 0 10.866 0 7C0 3.13401 3.13401 0 7 0C10.866 0 14 3.13401 14 7ZM7 11.4545C9.46018 11.4545 11.4545 9.46018 11.4545 7C11.4545 4.53982 9.46018 2.54545 7 2.54545C4.53982 2.54545 2.54545 4.53982 2.54545 7C2.54545 9.46018 4.53982 11.4545 7 11.4545Z" fill="white"/>
<path fill-rule="evenodd" clip-rule="evenodd" d="M17.7999 19.753L9.99989 11.953L11.9529 10L19.7529 17.8L17.7999 19.753Z" fill="white"/>
</svg>
