<svg width="10" height="16" viewBox="0 0 10 16" fill="none" xmlns="http://www.w3.org/2000/svg">
<g clip-path="url(#clip0)">
<path d="M7.61905 0.380959H1.52381C1.11967 0.380959 0.732083 0.541502 0.446313 0.827272C0.160544 1.11304 0 1.50063 0 1.90477V14.0952C0 14.4994 0.160544 14.887 0.446313 15.1727C0.732083 15.4585 1.11967 15.6191 1.52381 15.6191H7.61905C8.02319 15.6191 8.41077 15.4585 8.69654 15.1727C8.98231 14.887 9.14286 14.4994 9.14286 14.0952V1.90477C9.14286 1.50063 8.98231 1.11304 8.69654 0.827272C8.41077 0.541502 8.02319 0.380959 7.61905 0.380959ZM5.33333 14.8571H3.80952V14.0952H5.33333V14.8571ZM7.61905 13.3333H1.52381V2.66667H7.61905V13.3333Z" fill="white"/>
</g>
<defs>
<clipPath id="clip0">
<rect width="9.14286" height="16" fill="white"/>
</clipPath>
</defs>
</svg>
