<svg width="24" height="19" viewBox="0 0 24 19" fill="none" xmlns="http://www.w3.org/2000/svg">
<g clip-path="url(#clip0)">
<path d="M11 17.5513C11 18.6275 11.4477 19 12 19C12.5523 19 13 18.6275 13 17.5513L13 1.96154C13 0.88529 12.5523 0.5 12 0.5C11.4477 0.5 11 0.885292 11 1.96154L11 17.5513Z" fill="#B8B8B8"/>
<path d="M5 19C4.44772 19 4 18.7442 4 18.4286L4 11.5714C4 11.2558 4.44772 11 5 11C5.55228 11 6 11.2558 6 11.5714L6 18.4286C6 18.7442 5.55228 19 5 19Z" fill="#B8B8B8"/>
<path d="M18 17.6552C18 18.3979 18.4477 19 19 19C19.5523 19 20 18.3979 20 17.6552L20 7.34483C20 6.6021 19.5523 6 19 6C18.4477 6 18 6.6021 18 7.34483L18 17.6552Z" fill="#B8B8B8"/>
</g>
<defs>
<clipPath id="clip0">
<rect width="19" height="24" fill="white" transform="matrix(0 1 1 0 0 0)"/>
</clipPath>
</defs>
</svg>
