<svg width="162" height="100" viewBox="0 0 162 100" fill="none" xmlns="http://www.w3.org/2000/svg">
<path d="M116 61V31.8333C116 30.2862 115.385 28.8025 114.291 27.7085C113.197 26.6146 111.714 26 110.167 26H51.8333C50.2862 26 48.8025 26.6146 47.7085 27.7085C46.6146 28.8025 46 30.2862 46 31.8333V90.1667C46 91.7138 46.6146 93.1975 47.7085 94.2915C48.8025 95.3854 50.2862 96 51.8333 96H81" stroke="#E6E4E4" stroke-width="6.66667" stroke-linecap="round" stroke-linejoin="round"/>
<path d="M96.5541 88.2222C102.997 88.2222 108.221 82.9988 108.221 76.5555C108.221 70.1122 102.997 64.8889 96.5541 64.8889C90.1108 64.8889 84.8875 70.1122 84.8875 76.5555C84.8875 82.9988 90.1108 88.2222 96.5541 88.2222Z" stroke="#E6E4E4" stroke-width="6.66667"/>
<path d="M106.279 84.3334L116.002 92.1112" stroke="#E6E4E4" stroke-width="6.66667" stroke-linecap="round" stroke-linejoin="round"/>
<path d="M61.554 45.4445H100.443" stroke="#E6E4E4" stroke-width="6.66667" stroke-linecap="round" stroke-linejoin="round"/>
<path d="M61.554 61H77.1095" stroke="#E6E4E4" stroke-width="6.66667" stroke-linecap="round" stroke-linejoin="round"/>
</svg>
